<svg width="1366" height="705" xmlns="http://www.w3.org/2000/svg"><g><path d="M-66.5197977796197,-27.130429046228528L-106.1914861947298,427.39952037110925L-55.94279212877154,69.39774108119309Z" fill="#f2ffc8" stroke="#f2ffc8"></path><path d="M-66.5197977796197,-27.130429046228528L-55.94279212877154,69.39774108119309L72.92530529201031,67.8175843320787Z" fill="#ffffd8" stroke="#ffffd8"></path><path d="M-66.5197977796197,-27.130429046228528L72.92530529201031,67.8175843320787L129.13132399320602,-94.03612422756851Z" fill="#fbfee0" stroke="#fbfee0"></path><path d="M129.13132399320602,-94.03612422756851L72.92530529201031,67.8175843320787L262.0334678236395,115.21566742099822Z" fill="#f0f9c8" stroke="#f0f9c8"></path><path d="M129.13132399320602,-94.03612422756851L262.0334678236395,115.21566742099822L265.03133970312774,-105.93178206123412Z" fill="#eaf7d0" stroke="#eaf7d0"></path><path d="M265.03133970312774,-105.93178206123412L262.0334678236395,115.21566742099822L382.3305455222726,-51.06880797073245Z" fill="#e0f2c9" stroke="#e0f2c9"></path><path d="M265.03133970312774,-105.93178206123412L382.3305455222726,-51.06880797073245L705.6349099427462,-75.65500734373927Z" fill="#ceebc3" stroke="#ceebc3"></path><path d="M265.03133970312774,-105.93178206123412L705.6349099427462,-75.65500734373927L871.9977802969515,-109.83445029705763Z" fill="#b8e1ba" stroke="#b8e1ba"></path><path d="M382.3305455222726,-51.06880797073245L262.0334678236395,115.21566742099822L379.04670272022486,127.02930268831551Z" fill="#dcf1b4" stroke="#dcf1b4"></path><path d="M382.3305455222726,-51.06880797073245L379.04670272022486,127.02930268831551L482.9714227002114,91.5112684853375Z" fill="#d3edb2" stroke="#d3edb2"></path><path d="M382.3305455222726,-51.06880797073245L482.9714227002114,91.5112684853375L537.6450943574309,-18.153274822980165Z" fill="#cceabb" stroke="#cceabb"></path><path d="M382.3305455222726,-51.06880797073245L537.6450943574309,-18.153274822980165L705.6349099427462,-75.65500734373927Z" fill="#c2e5bf" stroke="#c2e5bf"></path><path d="M537.6450943574309,-18.153274822980165L482.9714227002114,91.5112684853375L565.6995529308915,175.821519959718Z" fill="#c3e6a5" stroke="#c3e6a5"></path><path d="M537.6450943574309,-18.153274822980165L565.6995529308915,175.821519959718L698.5711712948978,132.26636624895036Z" fill="#bae29e" stroke="#bae29e"></path><path d="M537.6450943574309,-18.153274822980165L698.5711712948978,132.26636624895036L705.6349099427462,-75.65500734373927Z" fill="#b3deaf" stroke="#b3deaf"></path><path d="M705.6349099427462,-75.65500734373927L698.5711712948978,132.26636624895036L874.2202514782548,81.91569412127137Z" fill="#a3d79f" stroke="#a3d79f"></path><path d="M705.6349099427462,-75.65500734373927L874.2202514782548,81.91569412127137L871.9977802969515,-109.83445029705763Z" fill="#9dd2ac" stroke="#9dd2ac"></path><path d="M871.9977802969515,-109.83445029705763L874.2202514782548,81.91569412127137L929.9781424272805,-34.48799301870167Z" fill="#98caa6" stroke="#98caa6"></path><path d="M871.9977802969515,-109.83445029705763L929.9781424272805,-34.48799301870167L1093.0455803498626,-51.039642971009016Z" fill="#92c3a2" stroke="#92c3a2"></path><path d="M871.9977802969515,-109.83445029705763L1093.0455803498626,-51.039642971009016L1332.0326692331582,-108.40643542818725Z" fill="#86b49c" stroke="#86b49c"></path><path d="M929.9781424272805,-34.48799301870167L874.2202514782548,81.91569412127137L986.1179832369089,62.41082774475217Z" fill="#95c695" stroke="#95c695"></path><path d="M929.9781424272805,-34.48799301870167L986.1179832369089,62.41082774475217L1093.0455803498626,-51.039642971009016Z" fill="#8fbf9c" stroke="#8fbf9c"></path><path d="M1093.0455803498626,-51.039642971009016L986.1179832369089,62.41082774475217L1121.6919975355268,108.05422481149435Z" fill="#89b88e" stroke="#89b88e"></path><path d="M1093.0455803498626,-51.039642971009016L1121.6919975355268,108.05422481149435L1330.1897046435624,71.05475180782378Z" fill="#80ac88" stroke="#80ac88"></path><path d="M1093.0455803498626,-51.039642971009016L1330.1897046435624,71.05475180782378L1332.0326692331582,-108.40643542818725Z" fill="#80a495" stroke="#80a495"></path><path d="M1332.0326692331582,-108.40643542818725L1330.1897046435624,71.05475180782378L1440.6885745190084,-72.05365215428174Z" fill="#809890" stroke="#809890"></path><path d="M1440.6885745190084,-72.05365215428174L1330.1897046435624,71.05475180782378L1473.270087763667,99.69840190373361Z" fill="#809380" stroke="#809380"></path><path d="M1440.6885745190084,-72.05365215428174L1473.270087763667,99.69840190373361L1551.4132022950798,-34.51187325641513Z" fill="#808b85" stroke="#808b85"></path><path d="M1551.4132022950798,-34.51187325641513L1473.270087763667,99.69840190373361L1578.3233297802508,72.9917870555073Z" fill="#808678" stroke="#808678"></path><path d="M-55.94279212877154,69.39774108119309L-106.1914861947298,427.39952037110925L-41.71549458056688,262.9084508959204Z" fill="#d7fabb" stroke="#d7fabb"></path><path d="M-55.94279212877154,69.39774108119309L-41.71549458056688,262.9084508959204L72.92530529201031,67.8175843320787Z" fill="#f7ffc4" stroke="#f7ffc4"></path><path d="M72.92530529201031,67.8175843320787L-41.71549458056688,262.9084508959204L39.835207192227244,274.8499556723982Z" fill="#e4feb8" stroke="#e4feb8"></path><path d="M72.92530529201031,67.8175843320787L39.835207192227244,274.8499556723982L195.99194504320621,206.8725660815835Z" fill="#e1fbb2" stroke="#e1fbb2"></path><path d="M72.92530529201031,67.8175843320787L195.99194504320621,206.8725660815835L262.0334678236395,115.21566742099822Z" fill="#e7f8b1" stroke="#e7f8b1"></path><path d="M262.0334678236395,115.21566742099822L195.99194504320621,206.8725660815835L340.90501754544675,239.20008715242147Z" fill="#cff4a4" stroke="#cff4a4"></path><path d="M262.0334678236395,115.21566742099822L340.90501754544675,239.20008715242147L379.04670272022486,127.02930268831551Z" fill="#cff1a4" stroke="#cff1a4"></path><path d="M379.04670272022486,127.02930268831551L340.90501754544675,239.20008715242147L565.6995529308915,175.821519959718Z" fill="#beec9c" stroke="#beec9c"></path><path d="M379.04670272022486,127.02930268831551L565.6995529308915,175.821519959718L482.9714227002114,91.5112684853375Z" fill="#c3e9a0" stroke="#c3e9a0"></path><path d="M698.5711712948978,132.26636624895036L565.6995529308915,175.821519959718L711.4962731860578,256.6021263319999Z" fill="#9cde8e" stroke="#9cde8e"></path><path d="M698.5711712948978,132.26636624895036L711.4962731860578,256.6021263319999L844.9497781321406,224.8459661565721Z" fill="#8bd785" stroke="#8bd785"></path><path d="M698.5711712948978,132.26636624895036L844.9497781321406,224.8459661565721L874.2202514782548,81.91569412127137Z" fill="#93d389" stroke="#93d389"></path><path d="M874.2202514782548,81.91569412127137L844.9497781321406,224.8459661565721L1033.2885919231921,217.6500502601266Z" fill="#84c87e" stroke="#84c87e"></path><path d="M874.2202514782548,81.91569412127137L1033.2885919231921,217.6500502601266L986.1179832369089,62.41082774475217Z" fill="#8dc381" stroke="#8dc381"></path><path d="M986.1179832369089,62.41082774475217L1033.2885919231921,217.6500502601266L1121.6919975355268,108.05422481149435Z" fill="#84ba7c" stroke="#84ba7c"></path><path d="M1121.6919975355268,108.05422481149435L1033.2885919231921,217.6500502601266L1100.649583004415,230.27064012363553Z" fill="#73b673" stroke="#73b673"></path><path d="M1121.6919975355268,108.05422481149435L1100.649583004415,230.27064012363553L1219.5450482144952,188.09557107277215Z" fill="#70af72" stroke="#70af72"></path><path d="M1121.6919975355268,108.05422481149435L1219.5450482144952,188.09557107277215L1330.1897046435624,71.05475180782378Z" fill="#7aa775" stroke="#7aa775"></path><path d="M1330.1897046435624,71.05475180782378L1219.5450482144952,188.09557107277215L1462.8991318959743,209.51184866018593Z" fill="#729b6c" stroke="#729b6c"></path><path d="M1330.1897046435624,71.05475180782378L1462.8991318959743,209.51184866018593L1473.270087763667,99.69840190373361Z" fill="#79926c" stroke="#79926c"></path><path d="M1473.270087763667,99.69840190373361L1462.8991318959743,209.51184866018593L1533.7801015377045,251.50336420163512Z" fill="#6b8a62" stroke="#6b8a62"></path><path d="M1473.270087763667,99.69840190373361L1533.7801015377045,251.50336420163512L1578.3233297802508,72.9917870555073Z" fill="#768666" stroke="#768666"></path><path d="M1578.3233297802508,72.9917870555073L1533.7801015377045,251.50336420163512L1588.099820036441,354.2369019705802Z" fill="#5f805a" stroke="#5f805a"></path><path d="M-41.71549458056688,262.9084508959204L-106.1914861947298,427.39952037110925L39.835207192227244,274.8499556723982Z" fill="#c1f3af" stroke="#c1f3af"></path><path d="M39.835207192227244,274.8499556723982L-106.1914861947298,427.39952037110925L95.29382550157607,430.91104874387383Z" fill="#ade9a1" stroke="#ade9a1"></path><path d="M39.835207192227244,274.8499556723982L95.29382550157607,430.91104874387383L200.28832409530878,406.51411288417876Z" fill="#a6e698" stroke="#a6e698"></path><path d="M39.835207192227244,274.8499556723982L200.28832409530878,406.51411288417876L195.99194504320621,206.8725660815835Z" fill="#bbf1a0" stroke="#bbf1a0"></path><path d="M195.99194504320621,206.8725660815835L200.28832409530878,406.51411288417876L331.8586122337729,356.26182745210826Z" fill="#a8e894" stroke="#a8e894"></path><path d="M195.99194504320621,206.8725660815835L331.8586122337729,356.26182745210826L340.90501754544675,239.20008715242147Z" fill="#b5ed99" stroke="#b5ed99"></path><path d="M340.90501754544675,239.20008715242147L331.8586122337729,356.26182745210826L471.70408478938043,419.4005306158215Z" fill="#93e08a" stroke="#93e08a"></path><path d="M340.90501754544675,239.20008715242147L471.70408478938043,419.4005306158215L565.6995529308915,175.821519959718Z" fill="#9ce38f" stroke="#9ce38f"></path><path d="M565.6995529308915,175.821519959718L471.70408478938043,419.4005306158215L667.3615685943514,373.7362444214523Z" fill="#7fd782" stroke="#7fd782"></path><path d="M565.6995529308915,175.821519959718L667.3615685943514,373.7362444214523L711.4962731860578,256.6021263319999Z" fill="#85d884" stroke="#85d884"></path><path d="M711.4962731860578,256.6021263319999L667.3615685943514,373.7362444214523L879.5252373162657,369.3774888943881Z" fill="#62c974" stroke="#62c974"></path><path d="M711.4962731860578,256.6021263319999L879.5252373162657,369.3774888943881L844.9497781321406,224.8459661565721Z" fill="#6cca77" stroke="#6cca77"></path><path d="M844.9497781321406,224.8459661565721L879.5252373162657,369.3774888943881L1033.2885919231921,217.6500502601266Z" fill="#68c172" stroke="#68c172"></path><path d="M1033.2885919231921,217.6500502601266L879.5252373162657,369.3774888943881L974.7671148274094,427.4282644316554Z" fill="#4eb465" stroke="#4eb465"></path><path d="M1033.2885919231921,217.6500502601266L974.7671148274094,427.4282644316554L1100.649583004415,230.27064012363553Z" fill="#57b369" stroke="#57b369"></path><path d="M1100.649583004415,230.27064012363553L974.7671148274094,427.4282644316554L1175.8082968834788,382.85729030147195Z" fill="#41a65e" stroke="#41a65e"></path><path d="M1100.649583004415,230.27064012363553L1175.8082968834788,382.85729030147195L1237.8742474783212,342.02976778149605Z" fill="#42a15f" stroke="#42a15f"></path><path d="M1100.649583004415,230.27064012363553L1237.8742474783212,342.02976778149605L1219.5450482144952,188.09557107277215Z" fill="#57a667" stroke="#57a667"></path><path d="M1219.5450482144952,188.09557107277215L1237.8742474783212,342.02976778149605L1462.8991318959743,209.51184866018593Z" fill="#599a62" stroke="#599a62"></path><path d="M1462.8991318959743,209.51184866018593L1237.8742474783212,342.02976778149605L1457.644451474771,367.13236341252923Z" fill="#468c57" stroke="#468c57"></path><path d="M1462.8991318959743,209.51184866018593L1457.644451474771,367.13236341252923L1533.7801015377045,251.50336420163512Z" fill="#508457" stroke="#508457"></path><path d="M1533.7801015377045,251.50336420163512L1457.644451474771,367.13236341252923L1588.099820036441,354.2369019705802Z" fill="#40794e" stroke="#40794e"></path><path d="M-106.1914861947298,427.39952037110925L-94.82372453436255,704.3856861256063L-38.11617881990969,577.8039211314172Z" fill="#87be90" stroke="#87be90"></path><path d="M-106.1914861947298,427.39952037110925L-38.11617881990969,577.8039211314172L35.22562681697309,569.5874822884798Z" fill="#90c990" stroke="#90c990"></path><path d="M-106.1914861947298,427.39952037110925L35.22562681697309,569.5874822884798L95.29382550157607,430.91104874387383Z" fill="#98d491" stroke="#98d491"></path><path d="M95.29382550157607,430.91104874387383L35.22562681697309,569.5874822884798L273.9360092114657,502.25642471574247Z" fill="#88ca81" stroke="#88ca81"></path><path d="M95.29382550157607,430.91104874387383L273.9360092114657,502.25642471574247L200.28832409530878,406.51411288417876Z" fill="#8cd483" stroke="#8cd483"></path><path d="M200.28832409530878,406.51411288417876L273.9360092114657,502.25642471574247L331.8586122337729,356.26182745210826Z" fill="#87d682" stroke="#87d682"></path><path d="M331.8586122337729,356.26182745210826L273.9360092114657,502.25642471574247L339.3870151229203,520.5174324475229Z" fill="#7ccb7a" stroke="#7ccb7a"></path><path d="M331.8586122337729,356.26182745210826L339.3870151229203,520.5174324475229L471.70408478938043,419.4005306158215Z" fill="#79ce7b" stroke="#79ce7b"></path><path d="M471.70408478938043,419.4005306158215L339.3870151229203,520.5174324475229L551.0450833942741,539.3364145886153Z" fill="#65bc6d" stroke="#65bc6d"></path><path d="M471.70408478938043,419.4005306158215L551.0450833942741,539.3364145886153L667.3615685943514,373.7362444214523Z" fill="#5ec16f" stroke="#5ec16f"></path><path d="M667.3615685943514,373.7362444214523L551.0450833942741,539.3364145886153L688.4243232943118,552.6463714521378Z" fill="#4cb264" stroke="#4cb264"></path><path d="M667.3615685943514,373.7362444214523L688.4243232943118,552.6463714521378L807.3749128729105,554.4302582927048Z" fill="#40ab5d" stroke="#40ab5d"></path><path d="M667.3615685943514,373.7362444214523L807.3749128729105,554.4302582927048L879.5252373162657,369.3774888943881Z" fill="#41b461" stroke="#41b461"></path><path d="M879.5252373162657,369.3774888943881L807.3749128729105,554.4302582927048L974.7671148274094,427.4282644316554Z" fill="#37a658" stroke="#37a658"></path><path d="M974.7671148274094,427.4282644316554L807.3749128729105,554.4302582927048L1017.6494848541915,473.75456758774817Z" fill="#2d9950" stroke="#2d9950"></path><path d="M974.7671148274094,427.4282644316554L1017.6494848541915,473.75456758774817L1175.8082968834788,382.85729030147195Z" fill="#2d9a52" stroke="#2d9a52"></path><path d="M1175.8082968834788,382.85729030147195L1017.6494848541915,473.75456758774817L1100.4433291498572,577.1796481590718Z" fill="#208a48" stroke="#208a48"></path><path d="M1175.8082968834788,382.85729030147195L1100.4433291498572,577.1796481590718L1242.0808383263648,559.3936037644744Z" fill="#147b41" stroke="#147b41"></path><path d="M1175.8082968834788,382.85729030147195L1242.0808383263648,559.3936037644744L1237.8742474783212,342.02976778149605Z" fill="#22884b" stroke="#22884b"></path><path d="M1237.8742474783212,342.02976778149605L1242.0808383263648,559.3936037644744L1450.3609982226044,516.5616722591221Z" fill="#1a7440" stroke="#1a7440"></path><path d="M1237.8742474783212,342.02976778149605L1450.3609982226044,516.5616722591221L1457.644451474771,367.13236341252923Z" fill="#267b47" stroke="#267b47"></path><path d="M1457.644451474771,367.13236341252923L1450.3609982226044,516.5616722591221L1586.904022442177,495.44038608670235Z" fill="#1d633a" stroke="#1d633a"></path><path d="M1457.644451474771,367.13236341252923L1586.904022442177,495.44038608670235L1588.099820036441,354.2369019705802Z" fill="#266b40" stroke="#266b40"></path><path d="M-38.11617881990969,577.8039211314172L-94.82372453436255,704.3856861256063L34.02328577823937,724.043006747961Z" fill="#80a581" stroke="#80a581"></path><path d="M-38.11617881990969,577.8039211314172L34.02328577823937,724.043006747961L35.22562681697309,569.5874822884798Z" fill="#7fb081" stroke="#7fb081"></path><path d="M35.22562681697309,569.5874822884798L34.02328577823937,724.043006747961L232.47128952294588,657.5617458019406Z" fill="#76a674" stroke="#76a674"></path><path d="M35.22562681697309,569.5874822884798L232.47128952294588,657.5617458019406L273.9360092114657,502.25642471574247Z" fill="#74b574" stroke="#74b574"></path><path d="M273.9360092114657,502.25642471574247L232.47128952294588,657.5617458019406L331.60788467153907,618.7497849203646Z" fill="#66ad6c" stroke="#66ad6c"></path><path d="M273.9360092114657,502.25642471574247L331.60788467153907,618.7497849203646L339.3870151229203,520.5174324475229Z" fill="#6bb66f" stroke="#6bb66f"></path><path d="M339.3870151229203,520.5174324475229L331.60788467153907,618.7497849203646L551.0450833942741,539.3364145886153Z" fill="#5dae68" stroke="#5dae68"></path><path d="M551.0450833942741,539.3364145886153L331.60788467153907,618.7497849203646L559.9229897931218,643.4658957459033Z" fill="#4ba060" stroke="#4ba060"></path><path d="M551.0450833942741,539.3364145886153L559.9229897931218,643.4658957459033L688.4243232943118,552.6463714521378Z" fill="#409e5c" stroke="#409e5c"></path><path d="M688.4243232943118,552.6463714521378L559.9229897931218,643.4658957459033L712.940449398011,710.5643073655665Z" fill="#338c52" stroke="#338c52"></path><path d="M688.4243232943118,552.6463714521378L712.940449398011,710.5643073655665L807.3749128729105,554.4302582927048Z" fill="#278e4f" stroke="#278e4f"></path><path d="M807.3749128729105,554.4302582927048L712.940449398011,710.5643073655665L770.3317080438137,720.3954119514674Z" fill="#237e47" stroke="#237e47"></path><path d="M807.3749128729105,554.4302582927048L770.3317080438137,720.3954119514674L1015.1404357329011,629.5649986155331Z" fill="#1a7b44" stroke="#1a7b44"></path><path d="M807.3749128729105,554.4302582927048L1015.1404357329011,629.5649986155331L1017.6494848541915,473.75456758774817Z" fill="#1e8847" stroke="#1e8847"></path><path d="M1017.6494848541915,473.75456758774817L1015.1404357329011,629.5649986155331L1100.4433291498572,577.1796481590718Z" fill="#157b41" stroke="#157b41"></path><path d="M1100.4433291498572,577.1796481590718L1015.1404357329011,629.5649986155331L1184.713755827397,646.0189497470856Z" fill="#076738" stroke="#076738"></path><path d="M1100.4433291498572,577.1796481590718L1184.713755827397,646.0189497470856L1242.0808383263648,559.3936037644744Z" fill="#026538" stroke="#026538"></path><path d="M1242.0808383263648,559.3936037644744L1184.713755827397,646.0189497470856L1281.5057989396155,642.9870877694339Z" fill="#005933" stroke="#005933"></path><path d="M1242.0808383263648,559.3936037644744L1281.5057989396155,642.9870877694339L1450.3609982226044,516.5616722591221Z" fill="#075a34" stroke="#075a34"></path><path d="M1450.3609982226044,516.5616722591221L1281.5057989396155,642.9870877694339L1448.7957321759313,720.7180716097355Z" fill="#00452b" stroke="#00452b"></path><path d="M1450.3609982226044,516.5616722591221L1448.7957321759313,720.7180716097355L1559.2372940294445,657.130930814892Z" fill="#003a26" stroke="#003a26"></path><path d="M1450.3609982226044,516.5616722591221L1559.2372940294445,657.130930814892L1586.904022442177,495.44038608670235Z" fill="#0a482c" stroke="#0a482c"></path><path d="M1586.904022442177,495.44038608670235L1559.2372940294445,657.130930814892L1565.9276197012514,883.5057034995407Z" fill="#00251d" stroke="#00251d"></path><path d="M-94.82372453436255,704.3856861256063L-67.7028229739517,850.3135372884572L34.02328577823937,724.043006747961Z" fill="#808f78" stroke="#808f78"></path><path d="M34.02328577823937,724.043006747961L-67.7028229739517,850.3135372884572L29.077126309275627,827.0627758093178Z" fill="#80856f" stroke="#80856f"></path><path d="M34.02328577823937,724.043006747961L29.077126309275627,827.0627758093178L223.60427543520927,873.1931417807937Z" fill="#767f65" stroke="#767f65"></path><path d="M34.02328577823937,724.043006747961L223.60427543520927,873.1931417807937L232.47128952294588,657.5617458019406Z" fill="#708a63" stroke="#708a63"></path><path d="M232.47128952294588,657.5617458019406L223.60427543520927,873.1931417807937L315.13585397042334,871.1235253605992Z" fill="#667a57" stroke="#667a57"></path><path d="M232.47128952294588,657.5617458019406L315.13585397042334,871.1235253605992L331.60788467153907,618.7497849203646Z" fill="#628d5e" stroke="#628d5e"></path><path d="M331.60788467153907,618.7497849203646L315.13585397042334,871.1235253605992L559.9229897931218,643.4658957459033Z" fill="#558959" stroke="#558959"></path><path d="M559.9229897931218,643.4658957459033L315.13585397042334,871.1235253605992L560.3205604758114,882.5836813822389Z" fill="#4b6f4c" stroke="#4b6f4c"></path><path d="M559.9229897931218,643.4658957459033L560.3205604758114,882.5836813822389L635.8791321516037,815.7333281356841Z" fill="#3c6d48" stroke="#3c6d48"></path><path d="M559.9229897931218,643.4658957459033L635.8791321516037,815.7333281356841L712.940449398011,710.5643073655665Z" fill="#35784a" stroke="#35784a"></path><path d="M712.940449398011,710.5643073655665L635.8791321516037,815.7333281356841L770.3317080438137,720.3954119514674Z" fill="#2b6c43" stroke="#2b6c43"></path><path d="M770.3317080438137,720.3954119514674L635.8791321516037,815.7333281356841L815.5203584767878,869.1566210612655Z" fill="#265d3b" stroke="#265d3b"></path><path d="M770.3317080438137,720.3954119514674L815.5203584767878,869.1566210612655L969.5489659812301,847.0091763976961Z" fill="#1b5132" stroke="#1b5132"></path><path d="M770.3317080438137,720.3954119514674L969.5489659812301,847.0091763976961L1015.1404357329011,629.5649986155331Z" fill="#165d36" stroke="#165d36"></path><path d="M1015.1404357329011,629.5649986155331L969.5489659812301,847.0091763976961L1162.276435000822,849.9252029601485Z" fill="#0b452a" stroke="#0b452a"></path><path d="M1015.1404357329011,629.5649986155331L1162.276435000822,849.9252029601485L1184.713755827397,646.0189497470856Z" fill="#054e2e" stroke="#054e2e"></path><path d="M1184.713755827397,646.0189497470856L1162.276435000822,849.9252029601485L1224.1553390398622,802.9921600967646Z" fill="#003925" stroke="#003925"></path><path d="M1184.713755827397,646.0189497470856L1224.1553390398622,802.9921600967646L1281.5057989396155,642.9870877694339Z" fill="#00452b" stroke="#00452b"></path><path d="M1281.5057989396155,642.9870877694339L1224.1553390398622,802.9921600967646L1372.0293251797557,790.7067552488297Z" fill="#003323" stroke="#003323"></path><path d="M1281.5057989396155,642.9870877694339L1372.0293251797557,790.7067552488297L1448.7957321759313,720.7180716097355Z" fill="#003122" stroke="#003122"></path><path d="M1448.7957321759313,720.7180716097355L1372.0293251797557,790.7067552488297L1565.9276197012514,883.5057034995407Z" fill="#001316" stroke="#001316"></path><path d="M1448.7957321759313,720.7180716097355L1565.9276197012514,883.5057034995407L1559.2372940294445,657.130930814892Z" fill="#001818" stroke="#001818"></path><path d="M-67.7028229739517,850.3135372884572L223.60427543520927,873.1931417807937L29.077126309275627,827.0627758093178Z" fill="#7a7d64" stroke="#7a7d64"></path><path d="M223.60427543520927,873.1931417807937L560.3205604758114,882.5836813822389L315.13585397042334,871.1235253605992Z" fill="#59704a" stroke="#59704a"></path><path d="M560.3205604758114,882.5836813822389L1565.9276197012514,883.5057034995407L815.5203584767878,869.1566210612655Z" fill="#114223" stroke="#114223"></path><path d="M560.3205604758114,882.5836813822389L815.5203584767878,869.1566210612655L635.8791321516037,815.7333281356841Z" fill="#305d3a" stroke="#305d3a"></path><path d="M815.5203584767878,869.1566210612655L1565.9276197012514,883.5057034995407L1162.276435000822,849.9252029601485Z" fill="#002c1b" stroke="#002c1b"></path><path d="M815.5203584767878,869.1566210612655L1162.276435000822,849.9252029601485L969.5489659812301,847.0091763976961Z" fill="#114225" stroke="#114225"></path><path d="M1162.276435000822,849.9252029601485L1565.9276197012514,883.5057034995407L1372.0293251797557,790.7067552488297Z" fill="#001816" stroke="#001816"></path><path d="M1162.276435000822,849.9252029601485L1372.0293251797557,790.7067552488297L1224.1553390398622,802.9921600967646Z" fill="#00261d" stroke="#00261d"></path></g></svg>