<svg width="1277" height="711" xmlns="http://www.w3.org/2000/svg"><g><path d="M-32.370921932160854,-74.32357131503522L-53.47954401280731,169.7915523312986L-33.44350912608206,55.03548650536686Z" fill="#870e26" stroke="#870e26" fill-opacity="1" stroke-opacity="1"/><path d="M-32.370921932160854,-74.32357131503522L-33.44350912608206,55.03548650536686L61.570909270085394,-44.895630520768464Z" fill="#620020" stroke="#620020" fill-opacity="1" stroke-opacity="1"/><path d="M-32.370921932160854,-74.32357131503522L61.570909270085394,-44.895630520768464L275.5637997062877,-71.06284912675619Z" fill="#670b21" stroke="#670b21" fill-opacity="1" stroke-opacity="1"/><path d="M-32.370921932160854,-74.32357131503522L275.5637997062877,-71.06284912675619L524.5634257933125,-73.55856245849282Z" fill="#7a3737" stroke="#7a3737" fill-opacity="1" stroke-opacity="1"/><path d="M61.570909270085394,-44.895630520768464L-33.44350912608206,55.03548650536686L45.093591320328414,54.20032620429993Z" fill="#880926" stroke="#880926" fill-opacity="1" stroke-opacity="1"/><path d="M61.570909270085394,-44.895630520768464L45.093591320328414,54.20032620429993L181.19874003343284,-29.99273899011314Z" fill="#8c0a27" stroke="#8c0a27" fill-opacity="1" stroke-opacity="1"/><path d="M61.570909270085394,-44.895630520768464L181.19874003343284,-29.99273899011314L275.5637997062877,-71.06284912675619Z" fill="#7e1e2b" stroke="#7e1e2b" fill-opacity="1" stroke-opacity="1"/><path d="M181.19874003343284,-29.99273899011314L45.093591320328414,54.20032620429993L189.07958461437374,83.90973880887032Z" fill="#b31d30" stroke="#b31d30" fill-opacity="1" stroke-opacity="1"/><path d="M181.19874003343284,-29.99273899011314L189.07958461437374,83.90973880887032L255.325600579381,75.95052536111325Z" fill="#c3343a" stroke="#c3343a" fill-opacity="1" stroke-opacity="1"/><path d="M181.19874003343284,-29.99273899011314L255.325600579381,75.95052536111325L275.5637997062877,-71.06284912675619Z" fill="#a33239" stroke="#a33239" fill-opacity="1" stroke-opacity="1"/><path d="M275.5637997062877,-71.06284912675619L255.325600579381,75.95052536111325L395.65300449263304,-44.18245860841125Z" fill="#aa4749" stroke="#aa4749" fill-opacity="1" stroke-opacity="1"/><path d="M275.5637997062877,-71.06284912675619L395.65300449263304,-44.18245860841125L524.5634257933125,-73.55856245849282Z" fill="#8e5e5c" stroke="#8e5e5c" fill-opacity="1" stroke-opacity="1"/><path d="M395.65300449263304,-44.18245860841125L255.325600579381,75.95052536111325L407.45178796350956,45.04636303987354Z" fill="#c95b58" stroke="#c95b58" fill-opacity="1" stroke-opacity="1"/><path d="M395.65300449263304,-44.18245860841125L407.45178796350956,45.04636303987354L470.5197494896129,32.329955883324146Z" fill="#c2676b" stroke="#c2676b" fill-opacity="1" stroke-opacity="1"/><path d="M395.65300449263304,-44.18245860841125L470.5197494896129,32.329955883324146L524.5634257933125,-73.55856245849282Z" fill="#a96e73" stroke="#a96e73" fill-opacity="1" stroke-opacity="1"/><path d="M524.5634257933125,-73.55856245849282L470.5197494896129,32.329955883324146L592.365266722627,54.16462496854365Z" fill="#c07986" stroke="#c07986" fill-opacity="1" stroke-opacity="1"/><path d="M524.5634257933125,-73.55856245849282L592.365266722627,54.16462496854365L619.3089899932966,-67.53030663821846Z" fill="#a97f8f" stroke="#a97f8f" fill-opacity="1" stroke-opacity="1"/><path d="M524.5634257933125,-73.55856245849282L619.3089899932966,-67.53030663821846L711.6307550901547,-71.16519597824663Z" fill="#887b86" stroke="#887b86" fill-opacity="1" stroke-opacity="1"/><path d="M524.5634257933125,-73.55856245849282L711.6307550901547,-71.16519597824663L925.1979750022292,-69.5916592841968Z" fill="#796c77" stroke="#796c77" fill-opacity="1" stroke-opacity="1"/><path d="M619.3089899932966,-67.53030663821846L592.365266722627,54.16462496854365L685.8708189986646,42.82078394666314Z" fill="#bd7b8c" stroke="#bd7b8c" fill-opacity="1" stroke-opacity="1"/><path d="M619.3089899932966,-67.53030663821846L685.8708189986646,42.82078394666314L711.6307550901547,-71.16519597824663Z" fill="#9b7382" stroke="#9b7382" fill-opacity="1" stroke-opacity="1"/><path d="M711.6307550901547,-71.16519597824663L685.8708189986646,42.82078394666314L820.8594735665247,-58.35972583387047Z" fill="#936979" stroke="#936979" fill-opacity="1" stroke-opacity="1"/><path d="M711.6307550901547,-71.16519597824663L820.8594735665247,-58.35972583387047L925.1979750022292,-69.5916592841968Z" fill="#6c5c67" stroke="#6c5c67" fill-opacity="1" stroke-opacity="1"/><path d="M820.8594735665247,-58.35972583387047L685.8708189986646,42.82078394666314L813.6208312120289,73.1398397218436Z" fill="#ae6978" stroke="#ae6978" fill-opacity="1" stroke-opacity="1"/><path d="M820.8594735665247,-58.35972583387047L813.6208312120289,73.1398397218436L960.4109907569364,53.78390624187887Z" fill="#9f5867" stroke="#9f5867" fill-opacity="1" stroke-opacity="1"/><path d="M820.8594735665247,-58.35972583387047L960.4109907569364,53.78390624187887L925.1979750022292,-69.5916592841968Z" fill="#764a5a" stroke="#764a5a" fill-opacity="1" stroke-opacity="1"/><path d="M925.1979750022292,-69.5916592841968L960.4109907569364,53.78390624187887L1056.957740886137,-67.60358766186982Z" fill="#613746" stroke="#613746" fill-opacity="1" stroke-opacity="1"/><path d="M925.1979750022292,-69.5916592841968L1056.957740886137,-67.60358766186982L1380.2861121948808,-64.99064616393298Z" fill="#251621" stroke="#251621" fill-opacity="1" stroke-opacity="1"/><path d="M1056.957740886137,-67.60358766186982L960.4109907569364,53.78390624187887L1027.0360628142953,58.128235773183405Z" fill="#763242" stroke="#763242" fill-opacity="1" stroke-opacity="1"/><path d="M1056.957740886137,-67.60358766186982L1027.0360628142953,58.128235773183405L1132.6204598648474,-41.09368205536157Z" fill="#532131" stroke="#532131" fill-opacity="1" stroke-opacity="1"/><path d="M1056.957740886137,-67.60358766186982L1132.6204598648474,-41.09368205536157L1270.4546468146145,-45.53663901053369Z" fill="#290f1c" stroke="#290f1c" fill-opacity="1" stroke-opacity="1"/><path d="M1056.957740886137,-67.60358766186982L1270.4546468146145,-45.53663901053369L1380.2861121948808,-64.99064616393298Z" fill="#15000c" stroke="#15000c" fill-opacity="1" stroke-opacity="1"/><path d="M1132.6204598648474,-41.09368205536157L1027.0360628142953,58.128235773183405L1126.0930250119418,72.44854767806828Z" fill="#6e2431" stroke="#6e2431" fill-opacity="1" stroke-opacity="1"/><path d="M1132.6204598648474,-41.09368205536157L1126.0930250119418,72.44854767806828L1254.8032268416137,35.825990405865014Z" fill="#581120" stroke="#581120" fill-opacity="1" stroke-opacity="1"/><path d="M1132.6204598648474,-41.09368205536157L1254.8032268416137,35.825990405865014L1270.4546468146145,-45.53663901053369Z" fill="#320011" stroke="#320011" fill-opacity="1" stroke-opacity="1"/><path d="M1270.4546468146145,-45.53663901053369L1254.8032268416137,35.825990405865014L1380.2861121948808,-64.99064616393298Z" fill="#2d0010" stroke="#2d0010" fill-opacity="1" stroke-opacity="1"/><path d="M1380.2861121948808,-64.99064616393298L1254.8032268416137,35.825990405865014L1399.315585368313,74.97981151100248Z" fill="#480414" stroke="#480414" fill-opacity="1" stroke-opacity="1"/><path d="M-33.44350912608206,55.03548650536686L-53.47954401280731,169.7915523312986L68.90157145448029,154.38324304763228Z" fill="#b0373c" stroke="#b0373c" fill-opacity="1" stroke-opacity="1"/><path d="M-33.44350912608206,55.03548650536686L68.90157145448029,154.38324304763228L45.093591320328414,54.20032620429993Z" fill="#ae2332" stroke="#ae2332" fill-opacity="1" stroke-opacity="1"/><path d="M45.093591320328414,54.20032620429993L68.90157145448029,154.38324304763228L189.07958461437374,83.90973880887032Z" fill="#c93039" stroke="#c93039" fill-opacity="1" stroke-opacity="1"/><path d="M189.07958461437374,83.90973880887032L68.90157145448029,154.38324304763228L146.02793151978403,166.4032523240894Z" fill="#dc4f49" stroke="#dc4f49" fill-opacity="1" stroke-opacity="1"/><path d="M189.07958461437374,83.90973880887032L146.02793151978403,166.4032523240894L287.56293659098446,175.00978650525212Z" fill="#e76a57" stroke="#e76a57" fill-opacity="1" stroke-opacity="1"/><path d="M189.07958461437374,83.90973880887032L287.56293659098446,175.00978650525212L255.325600579381,75.95052536111325Z" fill="#e66252" stroke="#e66252" fill-opacity="1" stroke-opacity="1"/><path d="M255.325600579381,75.95052536111325L287.56293659098446,175.00978650525212L359.73802619613707,140.96221094951034Z" fill="#f47f65" stroke="#f47f65" fill-opacity="1" stroke-opacity="1"/><path d="M255.325600579381,75.95052536111325L359.73802619613707,140.96221094951034L407.45178796350956,45.04636303987354Z" fill="#eb7060" stroke="#eb7060" fill-opacity="1" stroke-opacity="1"/><path d="M407.45178796350956,45.04636303987354L359.73802619613707,140.96221094951034L508.3771412400529,160.38031307514757Z" fill="#f89582" stroke="#f89582" fill-opacity="1" stroke-opacity="1"/><path d="M407.45178796350956,45.04636303987354L508.3771412400529,160.38031307514757L470.5197494896129,32.329955883324146Z" fill="#ee8881" stroke="#ee8881" fill-opacity="1" stroke-opacity="1"/><path d="M470.5197494896129,32.329955883324146L508.3771412400529,160.38031307514757L592.365266722627,54.16462496854365Z" fill="#ef9391" stroke="#ef9391" fill-opacity="1" stroke-opacity="1"/><path d="M592.365266722627,54.16462496854365L508.3771412400529,160.38031307514757L620.3851048508659,193.4375446429476Z" fill="#ffbcb0" stroke="#ffbcb0" fill-opacity="1" stroke-opacity="1"/><path d="M592.365266722627,54.16462496854365L620.3851048508659,193.4375446429476L700.5145647702739,148.23480140883476Z" fill="#f8b3a8" stroke="#f8b3a8" fill-opacity="1" stroke-opacity="1"/><path d="M592.365266722627,54.16462496854365L700.5145647702739,148.23480140883476L685.8708189986646,42.82078394666314Z" fill="#e59194" stroke="#e59194" fill-opacity="1" stroke-opacity="1"/><path d="M685.8708189986646,42.82078394666314L700.5145647702739,148.23480140883476L813.6208312120289,73.1398397218436Z" fill="#dc8a8b" stroke="#dc8a8b" fill-opacity="1" stroke-opacity="1"/><path d="M813.6208312120289,73.1398397218436L700.5145647702739,148.23480140883476L823.2537369942293,168.93509844783694Z" fill="#e29c91" stroke="#e29c91" fill-opacity="1" stroke-opacity="1"/><path d="M813.6208312120289,73.1398397218436L823.2537369942293,168.93509844783694L905.9730730764568,151.11800056882203Z" fill="#d59085" stroke="#d59085" fill-opacity="1" stroke-opacity="1"/><path d="M813.6208312120289,73.1398397218436L905.9730730764568,151.11800056882203L960.4109907569364,53.78390624187887Z" fill="#bf6e6e" stroke="#bf6e6e" fill-opacity="1" stroke-opacity="1"/><path d="M960.4109907569364,53.78390624187887L905.9730730764568,151.11800056882203L1056.906988560222,175.74586833827198Z" fill="#b77065" stroke="#b77065" fill-opacity="1" stroke-opacity="1"/><path d="M960.4109907569364,53.78390624187887L1056.906988560222,175.74586833827198L1027.0360628142953,58.128235773183405Z" fill="#a35352" stroke="#a35352" fill-opacity="1" stroke-opacity="1"/><path d="M1027.0360628142953,58.128235773183405L1056.906988560222,175.74586833827198L1126.0930250119418,72.44854767806828Z" fill="#984a47" stroke="#984a47" fill-opacity="1" stroke-opacity="1"/><path d="M1126.0930250119418,72.44854767806828L1056.906988560222,175.74586833827198L1140.0179582694545,179.22018592245877Z" fill="#985a4d" stroke="#985a4d" fill-opacity="1" stroke-opacity="1"/><path d="M1126.0930250119418,72.44854767806828L1140.0179582694545,179.22018592245877L1250.712193408981,141.0979113355279Z" fill="#8a453a" stroke="#8a453a" fill-opacity="1" stroke-opacity="1"/><path d="M1126.0930250119418,72.44854767806828L1250.712193408981,141.0979113355279L1254.8032268416137,35.825990405865014Z" fill="#721f22" stroke="#721f22" fill-opacity="1" stroke-opacity="1"/><path d="M1254.8032268416137,35.825990405865014L1250.712193408981,141.0979113355279L1399.315585368313,74.97981151100248Z" fill="#711e20" stroke="#711e20" fill-opacity="1" stroke-opacity="1"/><path d="M1399.315585368313,74.97981151100248L1250.712193408981,141.0979113355279L1347.3925163177773,170.70422200486064Z" fill="#80392e" stroke="#80392e" fill-opacity="1" stroke-opacity="1"/><path d="M1399.315585368313,74.97981151100248L1347.3925163177773,170.70422200486064L1368.428766769357,257.8279206948355Z" fill="#805241" stroke="#805241" fill-opacity="1" stroke-opacity="1"/><path d="M1399.315585368313,74.97981151100248L1368.428766769357,257.8279206948355L1376.512509775348,372.3736253520474Z" fill="#807568" stroke="#807568" fill-opacity="1" stroke-opacity="1"/><path d="M1399.315585368313,74.97981151100248L1376.512509775348,372.3736253520474L1400.1999483909458,596.6827926738188Z" fill="#808080" stroke="#808080" fill-opacity="1" stroke-opacity="1"/><path d="M-53.47954401280731,169.7915523312986L-78.52727388497442,470.1931517897174L-49.977221763692796,262.61440525762737Z" fill="#a08089" stroke="#a08089" fill-opacity="1" stroke-opacity="1"/><path d="M-53.47954401280731,169.7915523312986L-49.977221763692796,262.61440525762737L52.29109692852944,277.52501629758626Z" fill="#ae7677" stroke="#ae7677" fill-opacity="1" stroke-opacity="1"/><path d="M-53.47954401280731,169.7915523312986L52.29109692852944,277.52501629758626L68.90157145448029,154.38324304763228Z" fill="#bb6862" stroke="#bb6862" fill-opacity="1" stroke-opacity="1"/><path d="M68.90157145448029,154.38324304763228L52.29109692852944,277.52501629758626L155.65095000900328,263.1174518400803Z" fill="#d17d7a" stroke="#d17d7a" fill-opacity="1" stroke-opacity="1"/><path d="M68.90157145448029,154.38324304763228L155.65095000900328,263.1174518400803L146.02793151978403,166.4032523240894Z" fill="#da7265" stroke="#da7265" fill-opacity="1" stroke-opacity="1"/><path d="M146.02793151978403,166.4032523240894L155.65095000900328,263.1174518400803L287.56293659098446,175.00978650525212Z" fill="#e58b74" stroke="#e58b74" fill-opacity="1" stroke-opacity="1"/><path d="M287.56293659098446,175.00978650525212L155.65095000900328,263.1174518400803L289.4712356990203,285.4399344464764Z" fill="#ecab95" stroke="#ecab95" fill-opacity="1" stroke-opacity="1"/><path d="M287.56293659098446,175.00978650525212L289.4712356990203,285.4399344464764L363.1024327641353,291.74223012290895Z" fill="#f5c4ab" stroke="#f5c4ab" fill-opacity="1" stroke-opacity="1"/><path d="M287.56293659098446,175.00978650525212L363.1024327641353,291.74223012290895L359.73802619613707,140.96221094951034Z" fill="#f8b692" stroke="#f8b692" fill-opacity="1" stroke-opacity="1"/><path d="M359.73802619613707,140.96221094951034L363.1024327641353,291.74223012290895L471.63713657297194,269.6797305578366Z" fill="#fcd3b7" stroke="#fcd3b7" fill-opacity="1" stroke-opacity="1"/><path d="M359.73802619613707,140.96221094951034L471.63713657297194,269.6797305578366L508.3771412400529,160.38031307514757Z" fill="#fecaaa" stroke="#fecaaa" fill-opacity="1" stroke-opacity="1"/><path d="M508.3771412400529,160.38031307514757L471.63713657297194,269.6797305578366L575.3965796763077,295.7251085480675Z" fill="#ffeedd" stroke="#ffeedd" fill-opacity="1" stroke-opacity="1"/><path d="M508.3771412400529,160.38031307514757L575.3965796763077,295.7251085480675L620.3851048508659,193.4375446429476Z" fill="#ffead9" stroke="#ffead9" fill-opacity="1" stroke-opacity="1"/><path d="M620.3851048508659,193.4375446429476L575.3965796763077,295.7251085480675L699.2436901759356,298.9041064120829Z" fill="#f8f8f0" stroke="#f8f8f0" fill-opacity="1" stroke-opacity="1"/><path d="M620.3851048508659,193.4375446429476L699.2436901759356,298.9041064120829L700.5145647702739,148.23480140883476Z" fill="#f3dfcd" stroke="#f3dfcd" fill-opacity="1" stroke-opacity="1"/><path d="M700.5145647702739,148.23480140883476L699.2436901759356,298.9041064120829L817.6889816718176,248.79256196320057Z" fill="#e9ddcf" stroke="#e9ddcf" fill-opacity="1" stroke-opacity="1"/><path d="M700.5145647702739,148.23480140883476L817.6889816718176,248.79256196320057L823.2537369942293,168.93509844783694Z" fill="#e2c2ae" stroke="#e2c2ae" fill-opacity="1" stroke-opacity="1"/><path d="M823.2537369942293,168.93509844783694L817.6889816718176,248.79256196320057L905.9730730764568,151.11800056882203Z" fill="#d5b5a1" stroke="#d5b5a1" fill-opacity="1" stroke-opacity="1"/><path d="M905.9730730764568,151.11800056882203L817.6889816718176,248.79256196320057L964.6306601958349,267.3669005325064Z" fill="#cabaaa" stroke="#cabaaa" fill-opacity="1" stroke-opacity="1"/><path d="M905.9730730764568,151.11800056882203L964.6306601958349,267.3669005325064L1056.906988560222,175.74586833827198Z" fill="#b79c88" stroke="#b79c88" fill-opacity="1" stroke-opacity="1"/><path d="M1056.906988560222,175.74586833827198L964.6306601958349,267.3669005325064L1071.629924918525,273.4710613032803Z" fill="#aaa194" stroke="#aaa194" fill-opacity="1" stroke-opacity="1"/><path d="M1056.906988560222,175.74586833827198L1071.629924918525,273.4710613032803L1140.0179582694545,179.22018592245877Z" fill="#9c8674" stroke="#9c8674" fill-opacity="1" stroke-opacity="1"/><path d="M1140.0179582694545,179.22018592245877L1071.629924918525,273.4710613032803L1175.9099063230678,286.41635867767036Z" fill="#948e83" stroke="#948e83" fill-opacity="1" stroke-opacity="1"/><path d="M1140.0179582694545,179.22018592245877L1175.9099063230678,286.41635867767036L1258.4719039406627,268.9746797597036Z" fill="#868075" stroke="#868075" fill-opacity="1" stroke-opacity="1"/><path d="M1140.0179582694545,179.22018592245877L1258.4719039406627,268.9746797597036L1250.712193408981,141.0979113355279Z" fill="#816550" stroke="#816550" fill-opacity="1" stroke-opacity="1"/><path d="M1250.712193408981,141.0979113355279L1258.4719039406627,268.9746797597036L1347.3925163177773,170.70422200486064Z" fill="#80634e" stroke="#80634e" fill-opacity="1" stroke-opacity="1"/><path d="M1347.3925163177773,170.70422200486064L1258.4719039406627,268.9746797597036L1368.428766769357,257.8279206948355Z" fill="#807466" stroke="#807466" fill-opacity="1" stroke-opacity="1"/><path d="M-49.977221763692796,262.61440525762737L-78.52727388497442,470.1931517897174L-42.407822092063725,385.17285174690187Z" fill="#a1808c" stroke="#a1808c" fill-opacity="1" stroke-opacity="1"/><path d="M-49.977221763692796,262.61440525762737L-42.407822092063725,385.17285174690187L52.29109692852944,277.52501629758626Z" fill="#af808d" stroke="#af808d" fill-opacity="1" stroke-opacity="1"/><path d="M52.29109692852944,277.52501629758626L-42.407822092063725,385.17285174690187L32.008961737155914,387.20848550088704Z" fill="#b88190" stroke="#b88190" fill-opacity="1" stroke-opacity="1"/><path d="M52.29109692852944,277.52501629758626L32.008961737155914,387.20848550088704L138.34170205984265,406.40476127155125Z" fill="#cb8793" stroke="#cb8793" fill-opacity="1" stroke-opacity="1"/><path d="M52.29109692852944,277.52501629758626L138.34170205984265,406.40476127155125L155.65095000900328,263.1174518400803Z" fill="#d98c94" stroke="#d98c94" fill-opacity="1" stroke-opacity="1"/><path d="M155.65095000900328,263.1174518400803L138.34170205984265,406.40476127155125L253.30214156769216,391.81430304422975Z" fill="#e3a09f" stroke="#e3a09f" fill-opacity="1" stroke-opacity="1"/><path d="M155.65095000900328,263.1174518400803L253.30214156769216,391.81430304422975L289.4712356990203,285.4399344464764Z" fill="#ebb0a5" stroke="#ebb0a5" fill-opacity="1" stroke-opacity="1"/><path d="M289.4712356990203,285.4399344464764L253.30214156769216,391.81430304422975L363.1024327641353,291.74223012290895Z" fill="#f4c4b6" stroke="#f4c4b6" fill-opacity="1" stroke-opacity="1"/><path d="M363.1024327641353,291.74223012290895L253.30214156769216,391.81430304422975L404.47109091095626,380.076861330308Z" fill="#f9d0bf" stroke="#f9d0bf" fill-opacity="1" stroke-opacity="1"/><path d="M363.1024327641353,291.74223012290895L404.47109091095626,380.076861330308L471.63713657297194,269.6797305578366Z" fill="#fce1d3" stroke="#fce1d3" fill-opacity="1" stroke-opacity="1"/><path d="M471.63713657297194,269.6797305578366L404.47109091095626,380.076861330308L477.9129286156967,393.8893074076623Z" fill="#feeadf" stroke="#feeadf" fill-opacity="1" stroke-opacity="1"/><path d="M471.63713657297194,269.6797305578366L477.9129286156967,393.8893074076623L575.3965796763077,295.7251085480675Z" fill="#fff4ed" stroke="#fff4ed" fill-opacity="1" stroke-opacity="1"/><path d="M575.3965796763077,295.7251085480675L477.9129286156967,393.8893074076623L614.6471101883799,393.85903355199844Z" fill="#fffbf9" stroke="#fffbf9" fill-opacity="1" stroke-opacity="1"/><path d="M575.3965796763077,295.7251085480675L614.6471101883799,393.85903355199844L699.2436901759356,298.9041064120829Z" fill="#f9f9f9" stroke="#f9f9f9" fill-opacity="1" stroke-opacity="1"/><path d="M699.2436901759356,298.9041064120829L614.6471101883799,393.85903355199844L720.0305021880195,387.3298233002424Z" fill="#f2f2f2" stroke="#f2f2f2" fill-opacity="1" stroke-opacity="1"/><path d="M699.2436901759356,298.9041064120829L720.0305021880195,387.3298233002424L817.6889816718176,248.79256196320057Z" fill="#e8e8e6" stroke="#e8e8e6" fill-opacity="1" stroke-opacity="1"/><path d="M817.6889816718176,248.79256196320057L720.0305021880195,387.3298233002424L854.4398265704513,385.60221046209335Z" fill="#dfdfdf" stroke="#dfdfdf" fill-opacity="1" stroke-opacity="1"/><path d="M817.6889816718176,248.79256196320057L854.4398265704513,385.60221046209335L964.6306601958349,267.3669005325064Z" fill="#cececb" stroke="#cececb" fill-opacity="1" stroke-opacity="1"/><path d="M964.6306601958349,267.3669005325064L854.4398265704513,385.60221046209335L962.8095029992983,410.0035363715142Z" fill="#c4c4c4" stroke="#c4c4c4" fill-opacity="1" stroke-opacity="1"/><path d="M964.6306601958349,267.3669005325064L962.8095029992983,410.0035363715142L1041.883477307856,376.62296514958143Z" fill="#b4b4b4" stroke="#b4b4b4" fill-opacity="1" stroke-opacity="1"/><path d="M964.6306601958349,267.3669005325064L1041.883477307856,376.62296514958143L1071.629924918525,273.4710613032803Z" fill="#ababa8" stroke="#ababa8" fill-opacity="1" stroke-opacity="1"/><path d="M1071.629924918525,273.4710613032803L1041.883477307856,376.62296514958143L1148.2009730720893,401.54372746124864Z" fill="#9d9d9d" stroke="#9d9d9d" fill-opacity="1" stroke-opacity="1"/><path d="M1071.629924918525,273.4710613032803L1148.2009730720893,401.54372746124864L1175.9099063230678,286.41635867767036Z" fill="#939393" stroke="#939393" fill-opacity="1" stroke-opacity="1"/><path d="M1175.9099063230678,286.41635867767036L1148.2009730720893,401.54372746124864L1292.2892438992858,392.13140478823334Z" fill="#838383" stroke="#838383" fill-opacity="1" stroke-opacity="1"/><path d="M1175.9099063230678,286.41635867767036L1292.2892438992858,392.13140478823334L1258.4719039406627,268.9746797597036Z" fill="#80807f" stroke="#80807f" fill-opacity="1" stroke-opacity="1"/><path d="M1258.4719039406627,268.9746797597036L1292.2892438992858,392.13140478823334L1368.428766769357,257.8279206948355Z" fill="#80807d" stroke="#80807d" fill-opacity="1" stroke-opacity="1"/><path d="M1368.428766769357,257.8279206948355L1292.2892438992858,392.13140478823334L1376.512509775348,372.3736253520474Z" fill="#808080" stroke="#808080" fill-opacity="1" stroke-opacity="1"/><path d="M-42.407822092063725,385.17285174690187L-78.52727388497442,470.1931517897174L56.13803426735103,471.13052857574075Z" fill="#9e7280" stroke="#9e7280" fill-opacity="1" stroke-opacity="1"/><path d="M-42.407822092063725,385.17285174690187L56.13803426735103,471.13052857574075L32.008961737155914,387.20848550088704Z" fill="#b17a89" stroke="#b17a89" fill-opacity="1" stroke-opacity="1"/><path d="M32.008961737155914,387.20848550088704L56.13803426735103,471.13052857574075L138.34170205984265,406.40476127155125Z" fill="#c37f8b" stroke="#c37f8b" fill-opacity="1" stroke-opacity="1"/><path d="M138.34170205984265,406.40476127155125L56.13803426735103,471.13052857574075L143.95307428669184,503.8166137598455Z" fill="#c37781" stroke="#c37781" fill-opacity="1" stroke-opacity="1"/><path d="M138.34170205984265,406.40476127155125L143.95307428669184,503.8166137598455L253.30214156769216,391.81430304422975Z" fill="#d69392" stroke="#d69392" fill-opacity="1" stroke-opacity="1"/><path d="M253.30214156769216,391.81430304422975L143.95307428669184,503.8166137598455L281.9178440514952,493.4043513983488Z" fill="#d49890" stroke="#d49890" fill-opacity="1" stroke-opacity="1"/><path d="M253.30214156769216,391.81430304422975L281.9178440514952,493.4043513983488L404.47109091095626,380.076861330308Z" fill="#edbfb0" stroke="#edbfb0" fill-opacity="1" stroke-opacity="1"/><path d="M404.47109091095626,380.076861330308L281.9178440514952,493.4043513983488L395.89507455471903,503.15031667705625Z" fill="#e7c2b1" stroke="#e7c2b1" fill-opacity="1" stroke-opacity="1"/><path d="M404.47109091095626,380.076861330308L395.89507455471903,503.15031667705625L477.9129286156967,393.8893074076623Z" fill="#f3dbce" stroke="#f3dbce" fill-opacity="1" stroke-opacity="1"/><path d="M477.9129286156967,393.8893074076623L395.89507455471903,503.15031667705625L511.7987968912348,497.23952676169574Z" fill="#e8d6cc" stroke="#e8d6cc" fill-opacity="1" stroke-opacity="1"/><path d="M477.9129286156967,393.8893074076623L511.7987968912348,497.23952676169574L614.6471101883799,393.85903355199844Z" fill="#f4eeea" stroke="#f4eeea" fill-opacity="1" stroke-opacity="1"/><path d="M614.6471101883799,393.85903355199844L511.7987968912348,497.23952676169574L618.2370626367629,518.104321458377Z" fill="#e7e7e7" stroke="#e7e7e7" fill-opacity="1" stroke-opacity="1"/><path d="M614.6471101883799,393.85903355199844L618.2370626367629,518.104321458377L690.9798436099663,479.72194213885814Z" fill="#e1e1e1" stroke="#e1e1e1" fill-opacity="1" stroke-opacity="1"/><path d="M614.6471101883799,393.85903355199844L690.9798436099663,479.72194213885814L720.0305021880195,387.3298233002424Z" fill="#eaeaea" stroke="#eaeaea" fill-opacity="1" stroke-opacity="1"/><path d="M720.0305021880195,387.3298233002424L690.9798436099663,479.72194213885814L825.9202119754627,512.18318504747Z" fill="#d4d4d4" stroke="#d4d4d4" fill-opacity="1" stroke-opacity="1"/><path d="M720.0305021880195,387.3298233002424L825.9202119754627,512.18318504747L854.4398265704513,385.60221046209335Z" fill="#d4d4d4" stroke="#d4d4d4" fill-opacity="1" stroke-opacity="1"/><path d="M854.4398265704513,385.60221046209335L825.9202119754627,512.18318504747L941.5847062459216,466.2247030483559Z" fill="#bebebe" stroke="#bebebe" fill-opacity="1" stroke-opacity="1"/><path d="M854.4398265704513,385.60221046209335L941.5847062459216,466.2247030483559L962.8095029992983,410.0035363715142Z" fill="#bdbdbd" stroke="#bdbdbd" fill-opacity="1" stroke-opacity="1"/><path d="M962.8095029992983,410.0035363715142L941.5847062459216,466.2247030483559L1072.450324674137,493.8752013305202Z" fill="#a1a1a1" stroke="#a1a1a1" fill-opacity="1" stroke-opacity="1"/><path d="M962.8095029992983,410.0035363715142L1072.450324674137,493.8752013305202L1041.883477307856,376.62296514958143Z" fill="#a1a1a1" stroke="#a1a1a1" fill-opacity="1" stroke-opacity="1"/><path d="M1041.883477307856,376.62296514958143L1072.450324674137,493.8752013305202L1148.2009730720893,401.54372746124864Z" fill="#949494" stroke="#949494" fill-opacity="1" stroke-opacity="1"/><path d="M1148.2009730720893,401.54372746124864L1072.450324674137,493.8752013305202L1130.547701837495,496.67536029126495Z" fill="#808080" stroke="#808080" fill-opacity="1" stroke-opacity="1"/><path d="M1148.2009730720893,401.54372746124864L1130.547701837495,496.67536029126495L1264.676457210444,521.613114089705Z" fill="#6e6e6e" stroke="#6e6e6e" fill-opacity="1" stroke-opacity="1"/><path d="M1148.2009730720893,401.54372746124864L1264.676457210444,521.613114089705L1292.2892438992858,392.13140478823334Z" fill="#737373" stroke="#737373" fill-opacity="1" stroke-opacity="1"/><path d="M1292.2892438992858,392.13140478823334L1264.676457210444,521.613114089705L1374.3789131147787,491.50172249414027Z" fill="#686868" stroke="#686868" fill-opacity="1" stroke-opacity="1"/><path d="M1292.2892438992858,392.13140478823334L1374.3789131147787,491.50172249414027L1376.512509775348,372.3736253520474Z" fill="#787878" stroke="#787878" fill-opacity="1" stroke-opacity="1"/><path d="M1376.512509775348,372.3736253520474L1374.3789131147787,491.50172249414027L1400.1999483909458,596.6827926738188Z" fill="#5f5f5f" stroke="#5f5f5f" fill-opacity="1" stroke-opacity="1"/><path d="M-78.52727388497442,470.1931517897174L-40.22571152076125,802.6295085903257L-46.49019662756473,744.3791466765106Z" fill="#280613" stroke="#280613" fill-opacity="1" stroke-opacity="1"/><path d="M-78.52727388497442,470.1931517897174L-46.49019662756473,744.3791466765106L-26.69439658522606,576.2117729987949Z" fill="#4b2835" stroke="#4b2835" fill-opacity="1" stroke-opacity="1"/><path d="M-78.52727388497442,470.1931517897174L-26.69439658522606,576.2117729987949L56.13803426735103,471.13052857574075Z" fill="#845665" stroke="#845665" fill-opacity="1" stroke-opacity="1"/><path d="M56.13803426735103,471.13052857574075L-26.69439658522606,576.2117729987949L34.294980484992266,612.5236193370074Z" fill="#783f4e" stroke="#783f4e" fill-opacity="1" stroke-opacity="1"/><path d="M56.13803426735103,471.13052857574075L34.294980484992266,612.5236193370074L143.95307428669184,503.8166137598455Z" fill="#97525e" stroke="#97525e" fill-opacity="1" stroke-opacity="1"/><path d="M143.95307428669184,503.8166137598455L34.294980484992266,612.5236193370074L173.32701093982905,609.6385134896263Z" fill="#8b3e47" stroke="#8b3e47" fill-opacity="1" stroke-opacity="1"/><path d="M143.95307428669184,503.8166137598455L173.32701093982905,609.6385134896263L281.9178440514952,493.4043513983488Z" fill="#ad6d68" stroke="#ad6d68" fill-opacity="1" stroke-opacity="1"/><path d="M281.9178440514952,493.4043513983488L173.32701093982905,609.6385134896263L256.98478038888425,632.9117592284456Z" fill="#9b6157" stroke="#9b6157" fill-opacity="1" stroke-opacity="1"/><path d="M281.9178440514952,493.4043513983488L256.98478038888425,632.9117592284456L358.50885457359254,618.3275016816333Z" fill="#a27264" stroke="#a27264" fill-opacity="1" stroke-opacity="1"/><path d="M281.9178440514952,493.4043513983488L358.50885457359254,618.3275016816333L395.89507455471903,503.15031667705625Z" fill="#bf9786" stroke="#bf9786" fill-opacity="1" stroke-opacity="1"/><path d="M395.89507455471903,503.15031667705625L358.50885457359254,618.3275016816333L486.30756370257586,591.1323088826612Z" fill="#b19689" stroke="#b19689" fill-opacity="1" stroke-opacity="1"/><path d="M395.89507455471903,503.15031667705625L486.30756370257586,591.1323088826612L511.7987968912348,497.23952676169574Z" fill="#c8b7ad" stroke="#c8b7ad" fill-opacity="1" stroke-opacity="1"/><path d="M511.7987968912348,497.23952676169574L486.30756370257586,591.1323088826612L618.2370626367629,518.104321458377Z" fill="#c6c0bc" stroke="#c6c0bc" fill-opacity="1" stroke-opacity="1"/><path d="M618.2370626367629,518.104321458377L486.30756370257586,591.1323088826612L633.5179755836725,614.5480580814183Z" fill="#b2b2b1" stroke="#b2b2b1" fill-opacity="1" stroke-opacity="1"/><path d="M618.2370626367629,518.104321458377L633.5179755836725,614.5480580814183L690.9798436099663,479.72194213885814Z" fill="#bcbcbc" stroke="#bcbcbc" fill-opacity="1" stroke-opacity="1"/><path d="M690.9798436099663,479.72194213885814L633.5179755836725,614.5480580814183L722.5536199845374,633.8339232234284Z" fill="#a3a3a3" stroke="#a3a3a3" fill-opacity="1" stroke-opacity="1"/><path d="M690.9798436099663,479.72194213885814L722.5536199845374,633.8339232234284L825.9202119754627,512.18318504747Z" fill="#acacac" stroke="#acacac" fill-opacity="1" stroke-opacity="1"/><path d="M825.9202119754627,512.18318504747L722.5536199845374,633.8339232234284L852.175249485299,624.3792656809092Z" fill="#8a8a8a" stroke="#8a8a8a" fill-opacity="1" stroke-opacity="1"/><path d="M825.9202119754627,512.18318504747L852.175249485299,624.3792656809092L942.810887163505,597.5456260936335Z" fill="#808080" stroke="#808080" fill-opacity="1" stroke-opacity="1"/><path d="M825.9202119754627,512.18318504747L942.810887163505,597.5456260936335L941.5847062459216,466.2247030483559Z" fill="#959595" stroke="#959595" fill-opacity="1" stroke-opacity="1"/><path d="M941.5847062459216,466.2247030483559L942.810887163505,597.5456260936335L1072.450324674137,493.8752013305202Z" fill="#858585" stroke="#858585" fill-opacity="1" stroke-opacity="1"/><path d="M1072.450324674137,493.8752013305202L942.810887163505,597.5456260936335L1027.7846759697422,611.0634933132678Z" fill="#646464" stroke="#646464" fill-opacity="1" stroke-opacity="1"/><path d="M1072.450324674137,493.8752013305202L1027.7846759697422,611.0634933132678L1130.547701837495,496.67536029126495Z" fill="#676767" stroke="#676767" fill-opacity="1" stroke-opacity="1"/><path d="M1130.547701837495,496.67536029126495L1027.7846759697422,611.0634933132678L1180.8581098588184,604.3784739309922Z" fill="#4c4c4c" stroke="#4c4c4c" fill-opacity="1" stroke-opacity="1"/><path d="M1130.547701837495,496.67536029126495L1180.8581098588184,604.3784739309922L1264.676457210444,521.613114089705Z" fill="#4a4a4a" stroke="#4a4a4a" fill-opacity="1" stroke-opacity="1"/><path d="M1264.676457210444,521.613114089705L1180.8581098588184,604.3784739309922L1261.2911002431065,625.5363327916712Z" fill="#2d2d2d" stroke="#2d2d2d" fill-opacity="1" stroke-opacity="1"/><path d="M1264.676457210444,521.613114089705L1261.2911002431065,625.5363327916712L1400.1999483909458,596.6827926738188Z" fill="#2e2e2e" stroke="#2e2e2e" fill-opacity="1" stroke-opacity="1"/><path d="M1264.676457210444,521.613114089705L1400.1999483909458,596.6827926738188L1374.3789131147787,491.50172249414027Z" fill="#464646" stroke="#464646" fill-opacity="1" stroke-opacity="1"/><path d="M-26.69439658522606,576.2117729987949L-46.49019662756473,744.3791466765106L34.294980484992266,612.5236193370074Z" fill="#421322" stroke="#421322" fill-opacity="1" stroke-opacity="1"/><path d="M34.294980484992266,612.5236193370074L-46.49019662756473,744.3791466765106L76.45297892391682,695.5869141500443Z" fill="#3c0312" stroke="#3c0312" fill-opacity="1" stroke-opacity="1"/><path d="M34.294980484992266,612.5236193370074L76.45297892391682,695.5869141500443L173.32701093982905,609.6385134896263Z" fill="#671f29" stroke="#671f29" fill-opacity="1" stroke-opacity="1"/><path d="M173.32701093982905,609.6385134896263L76.45297892391682,695.5869141500443L151.75904469564557,740.1893448922783Z" fill="#5e141a" stroke="#5e141a" fill-opacity="1" stroke-opacity="1"/><path d="M173.32701093982905,609.6385134896263L151.75904469564557,740.1893448922783L256.98478038888425,632.9117592284456Z" fill="#702f2c" stroke="#702f2c" fill-opacity="1" stroke-opacity="1"/><path d="M256.98478038888425,632.9117592284456L151.75904469564557,740.1893448922783L296.51137431617826,685.1023851148784Z" fill="#6c3127" stroke="#6c3127" fill-opacity="1" stroke-opacity="1"/><path d="M256.98478038888425,632.9117592284456L296.51137431617826,685.1023851148784L358.50885457359254,618.3275016816333Z" fill="#875849" stroke="#875849" fill-opacity="1" stroke-opacity="1"/><path d="M358.50885457359254,618.3275016816333L296.51137431617826,685.1023851148784L366.3302758894861,711.7392582260072Z" fill="#805746" stroke="#805746" fill-opacity="1" stroke-opacity="1"/><path d="M358.50885457359254,618.3275016816333L366.3302758894861,711.7392582260072L486.30756370257586,591.1323088826612Z" fill="#907466" stroke="#907466" fill-opacity="1" stroke-opacity="1"/><path d="M486.30756370257586,591.1323088826612L366.3302758894861,711.7392582260072L487.92542955838144,737.411666335538Z" fill="#816c61" stroke="#816c61" fill-opacity="1" stroke-opacity="1"/><path d="M486.30756370257586,591.1323088826612L487.92542955838144,737.411666335538L633.5179755836725,614.5480580814183Z" fill="#908a86" stroke="#908a86" fill-opacity="1" stroke-opacity="1"/><path d="M633.5179755836725,614.5480580814183L487.92542955838144,737.411666335538L631.1368854064494,721.4135250402614Z" fill="#7f7f7f" stroke="#7f7f7f" fill-opacity="1" stroke-opacity="1"/><path d="M633.5179755836725,614.5480580814183L631.1368854064494,721.4135250402614L722.5536199845374,633.8339232234284Z" fill="#828282" stroke="#828282" fill-opacity="1" stroke-opacity="1"/><path d="M722.5536199845374,633.8339232234284L631.1368854064494,721.4135250402614L740.3174671297893,744.1127536725253Z" fill="#707070" stroke="#707070" fill-opacity="1" stroke-opacity="1"/><path d="M722.5536199845374,633.8339232234284L740.3174671297893,744.1127536725253L842.8755415370688,716.8952996004373Z" fill="#646464" stroke="#646464" fill-opacity="1" stroke-opacity="1"/><path d="M722.5536199845374,633.8339232234284L842.8755415370688,716.8952996004373L852.175249485299,624.3792656809092Z" fill="#6a6a6a" stroke="#6a6a6a" fill-opacity="1" stroke-opacity="1"/><path d="M852.175249485299,624.3792656809092L842.8755415370688,716.8952996004373L958.2713131792843,732.5737426057458Z" fill="#4d4d4d" stroke="#4d4d4d" fill-opacity="1" stroke-opacity="1"/><path d="M852.175249485299,624.3792656809092L958.2713131792843,732.5737426057458L942.810887163505,597.5456260936335Z" fill="#555555" stroke="#555555" fill-opacity="1" stroke-opacity="1"/><path d="M942.810887163505,597.5456260936335L958.2713131792843,732.5737426057458L1027.7846759697422,611.0634933132678Z" fill="#494949" stroke="#494949" fill-opacity="1" stroke-opacity="1"/><path d="M1027.7846759697422,611.0634933132678L958.2713131792843,732.5737426057458L1061.2837181566283,737.9270941903815Z" fill="#2e2e2e" stroke="#2e2e2e" fill-opacity="1" stroke-opacity="1"/><path d="M1027.7846759697422,611.0634933132678L1061.2837181566283,737.9270941903815L1126.3194879423827,686.8684453796595Z" fill="#242424" stroke="#242424" fill-opacity="1" stroke-opacity="1"/><path d="M1027.7846759697422,611.0634933132678L1126.3194879423827,686.8684453796595L1180.8581098588184,604.3784739309922Z" fill="#2f2f2f" stroke="#2f2f2f" fill-opacity="1" stroke-opacity="1"/><path d="M1180.8581098588184,604.3784739309922L1126.3194879423827,686.8684453796595L1261.2911002431065,625.5363327916712Z" fill="#1c1c1c" stroke="#1c1c1c" fill-opacity="1" stroke-opacity="1"/><path d="M1261.2911002431065,625.5363327916712L1126.3194879423827,686.8684453796595L1283.4080688096583,717.4635191261768Z" fill="#040404" stroke="#040404" fill-opacity="1" stroke-opacity="1"/><path d="M1261.2911002431065,625.5363327916712L1283.4080688096583,717.4635191261768L1400.1999483909458,596.6827926738188Z" fill="#121212" stroke="#121212" fill-opacity="1" stroke-opacity="1"/><path d="M1400.1999483909458,596.6827926738188L1283.4080688096583,717.4635191261768L1390.6668470893055,738.0769620742649Z" fill="#010101" stroke="#010101" fill-opacity="1" stroke-opacity="1"/><path d="M1400.1999483909458,596.6827926738188L1390.6668470893055,738.0769620742649L1387.9535400681198,829.6271895803511Z" fill="#000000" stroke="#000000" fill-opacity="1" stroke-opacity="1"/><path d="M-46.49019662756473,744.3791466765106L-40.22571152076125,802.6295085903257L76.45297892391682,695.5869141500443Z" fill="#330010" stroke="#330010" fill-opacity="1" stroke-opacity="1"/><path d="M76.45297892391682,695.5869141500443L-40.22571152076125,802.6295085903257L63.8348089158535,849.4087126851082Z" fill="#3f0411" stroke="#3f0411" fill-opacity="1" stroke-opacity="1"/><path d="M76.45297892391682,695.5869141500443L63.8348089158535,849.4087126851082L151.75904469564557,740.1893448922783Z" fill="#530a15" stroke="#530a15" fill-opacity="1" stroke-opacity="1"/><path d="M151.75904469564557,740.1893448922783L63.8348089158535,849.4087126851082L142.4624506244436,835.034581697546Z" fill="#5a0d16" stroke="#5a0d16" fill-opacity="1" stroke-opacity="1"/><path d="M151.75904469564557,740.1893448922783L142.4624506244436,835.034581697546L271.6461710864678,799.5266004279256Z" fill="#642320" stroke="#642320" fill-opacity="1" stroke-opacity="1"/><path d="M151.75904469564557,740.1893448922783L271.6461710864678,799.5266004279256L296.51137431617826,685.1023851148784Z" fill="#6c3329" stroke="#6c3329" fill-opacity="1" stroke-opacity="1"/><path d="M296.51137431617826,685.1023851148784L271.6461710864678,799.5266004279256L366.3302758894861,711.7392582260072Z" fill="#754839" stroke="#754839" fill-opacity="1" stroke-opacity="1"/><path d="M366.3302758894861,711.7392582260072L271.6461710864678,799.5266004279256L392.7377245062962,846.6844751453027Z" fill="#7a5140" stroke="#7a5140" fill-opacity="1" stroke-opacity="1"/><path d="M366.3302758894861,711.7392582260072L392.7377245062962,846.6844751453027L487.92542955838144,737.411666335538Z" fill="#7d6255" stroke="#7d6255" fill-opacity="1" stroke-opacity="1"/><path d="M487.92542955838144,737.411666335538L392.7377245062962,846.6844751453027L502.09855907130986,822.6909115584567Z" fill="#7f6d63" stroke="#7f6d63" fill-opacity="1" stroke-opacity="1"/><path d="M487.92542955838144,737.411666335538L502.09855907130986,822.6909115584567L586.9890551734716,814.6216915966943Z" fill="#7f7773" stroke="#7f7773" fill-opacity="1" stroke-opacity="1"/><path d="M487.92542955838144,737.411666335538L586.9890551734716,814.6216915966943L631.1368854064494,721.4135250402614Z" fill="#807e7d" stroke="#807e7d" fill-opacity="1" stroke-opacity="1"/><path d="M631.1368854064494,721.4135250402614L586.9890551734716,814.6216915966943L733.5114060109481,802.8389855241403Z" fill="#767676" stroke="#767676" fill-opacity="1" stroke-opacity="1"/><path d="M631.1368854064494,721.4135250402614L733.5114060109481,802.8389855241403L740.3174671297893,744.1127536725253Z" fill="#6f6f6f" stroke="#6f6f6f" fill-opacity="1" stroke-opacity="1"/><path d="M740.3174671297893,744.1127536725253L733.5114060109481,802.8389855241403L825.9163103671744,816.617101142183Z" fill="#656565" stroke="#656565" fill-opacity="1" stroke-opacity="1"/><path d="M740.3174671297893,744.1127536725253L825.9163103671744,816.617101142183L842.8755415370688,716.8952996004373Z" fill="#5f5f5f" stroke="#5f5f5f" fill-opacity="1" stroke-opacity="1"/><path d="M842.8755415370688,716.8952996004373L825.9163103671744,816.617101142183L932.2195006534457,827.0159467170015Z" fill="#515151" stroke="#515151" fill-opacity="1" stroke-opacity="1"/><path d="M842.8755415370688,716.8952996004373L932.2195006534457,827.0159467170015L958.2713131792843,732.5737426057458Z" fill="#484848" stroke="#484848" fill-opacity="1" stroke-opacity="1"/><path d="M958.2713131792843,732.5737426057458L932.2195006534457,827.0159467170015L1034.0675710747018,851.0600881325081Z" fill="#383838" stroke="#383838" fill-opacity="1" stroke-opacity="1"/><path d="M958.2713131792843,732.5737426057458L1034.0675710747018,851.0600881325081L1061.2837181566283,737.9270941903815Z" fill="#2d2d2d" stroke="#2d2d2d" fill-opacity="1" stroke-opacity="1"/><path d="M1061.2837181566283,737.9270941903815L1034.0675710747018,851.0600881325081L1126.8439336912706,843.7056644400582Z" fill="#202020" stroke="#202020" fill-opacity="1" stroke-opacity="1"/><path d="M1061.2837181566283,737.9270941903815L1126.8439336912706,843.7056644400582L1126.3194879423827,686.8684453796595Z" fill="#1a1a1a" stroke="#1a1a1a" fill-opacity="1" stroke-opacity="1"/><path d="M1126.3194879423827,686.8684453796595L1126.8439336912706,843.7056644400582L1283.4080688096583,717.4635191261768Z" fill="#090909" stroke="#090909" fill-opacity="1" stroke-opacity="1"/><path d="M1283.4080688096583,717.4635191261768L1126.8439336912706,843.7056644400582L1244.5222568651661,854.6644422831014Z" fill="#010101" stroke="#010101" fill-opacity="1" stroke-opacity="1"/><path d="M1283.4080688096583,717.4635191261768L1244.5222568651661,854.6644422831014L1387.9535400681198,829.6271895803511Z" fill="#000000" stroke="#000000" fill-opacity="1" stroke-opacity="1"/><path d="M1283.4080688096583,717.4635191261768L1387.9535400681198,829.6271895803511L1390.6668470893055,738.0769620742649Z" fill="#000000" stroke="#000000" fill-opacity="1" stroke-opacity="1"/><path d="M63.8348089158535,849.4087126851082L1244.5222568651661,854.6644422831014L1034.0675710747018,851.0600881325081Z" fill="#626262" stroke="#626262" fill-opacity="1" stroke-opacity="1"/><path d="M63.8348089158535,849.4087126851082L1034.0675710747018,851.0600881325081L392.7377245062962,846.6844751453027Z" fill="#7f736c" stroke="#7f736c" fill-opacity="1" stroke-opacity="1"/><path d="M63.8348089158535,849.4087126851082L392.7377245062962,846.6844751453027L142.4624506244436,835.034581697546Z" fill="#662622" stroke="#662622" fill-opacity="1" stroke-opacity="1"/><path d="M142.4624506244436,835.034581697546L392.7377245062962,846.6844751453027L271.6461710864678,799.5266004279256Z" fill="#703b2f" stroke="#703b2f" fill-opacity="1" stroke-opacity="1"/><path d="M392.7377245062962,846.6844751453027L1034.0675710747018,851.0600881325081L825.9163103671744,816.617101142183Z" fill="#676767" stroke="#676767" fill-opacity="1" stroke-opacity="1"/><path d="M392.7377245062962,846.6844751453027L825.9163103671744,816.617101142183L586.9890551734716,814.6216915966943Z" fill="#7d7d7d" stroke="#7d7d7d" fill-opacity="1" stroke-opacity="1"/><path d="M392.7377245062962,846.6844751453027L586.9890551734716,814.6216915966943L502.09855907130986,822.6909115584567Z" fill="#7f726b" stroke="#7f726b" fill-opacity="1" stroke-opacity="1"/><path d="M586.9890551734716,814.6216915966943L825.9163103671744,816.617101142183L733.5114060109481,802.8389855241403Z" fill="#6d6d6d" stroke="#6d6d6d" fill-opacity="1" stroke-opacity="1"/><path d="M825.9163103671744,816.617101142183L1034.0675710747018,851.0600881325081L932.2195006534457,827.0159467170015Z" fill="#434343" stroke="#434343" fill-opacity="1" stroke-opacity="1"/><path d="M1034.0675710747018,851.0600881325081L1244.5222568651661,854.6644422831014L1126.8439336912706,843.7056644400582Z" fill="#131313" stroke="#131313" fill-opacity="1" stroke-opacity="1"/></g></svg>